<svg width="100%" height="100%" id="svg" viewBox="0 0 1440 490" xmlns="http://www.w3.org/2000/svg" class="transition duration-300 ease-in-out delay-150"><path d="M 0,500 C 0,500 0,166 0,166 C 89.81538461538463,185.65128205128207 179.63076923076926,205.3025641025641 250,198 C 320.36923076923074,190.6974358974359 371.29230769230765,156.44102564102565 449,147 C 526.7076923076924,137.55897435897435 631.2,152.93333333333334 714,173 C 796.8,193.06666666666666 857.9076923076922,217.82564102564103 929,199 C 1000.0923076923078,180.17435897435897 1081.1692307692308,117.76410256410257 1168,105 C 1254.8307692307692,92.23589743589743 1347.4153846153845,129.1179487179487 1440,166 C 1440,166 1440,500 1440,500 Z" stroke="none" stroke-width="0" fill="#0693e3" fill-opacity="0.53" class="transition-all duration-300 ease-in-out delay-150 path-0"></path><path d="M 0,500 C 0,500 0,333 0,333 C 97.16153846153844,311.33589743589744 194.32307692307688,289.6717948717948 283,300 C 371.6769230769231,310.3282051282052 451.86923076923074,352.64871794871794 507,350 C 562.1307692307693,347.35128205128206 592.2,299.73333333333335 676,277 C 759.8,254.26666666666665 897.3307692307692,256.4179487179487 980,279 C 1062.6692307692308,301.5820512820513 1090.476923076923,344.5948717948718 1158,357 C 1225.523076923077,369.4051282051282 1332.7615384615385,351.2025641025641 1440,333 C 1440,333 1440,500 1440,500 Z" stroke="none" stroke-width="0" fill="#0693e3" fill-opacity="1" class="transition-all duration-300 ease-in-out delay-150 path-1"></path></svg>
